<svg xmlns="http://www.w3.org/2000/svg" viewBox="0 0 512 512"><defs><clipPath id="icon-bg"><path d="M0 0h512v512H0z" fill="rgba(0, 0, 0, 0)" transform="translate(-76.8, 588.8) scale(1.3, -1.3) rotate(-180, 256, 256)"></path></clipPath></defs><path d="M0 0h512v512H0z" fill="rgba(0, 0, 0, 0)"></path><g class="" transform="translate(0,0)" style="touch-action: none;"><path fill="rgba(0, 0, 0, 1)" d="M477.443 295.143a104.45 104.45 0 0 1-202.26 36.67c-.08 68.73 4.33 114.46 69.55 149h-177.57c65.22-34.53 69.63-80.25 69.55-149a104.41 104.41 0 1 1-66.34-136.28 104.45 104.45 0 1 1 171.14 0 104.5 104.5 0 0 1 135.93 99.61z" clip-path="url(#icon-bg)" transform="translate(76.8, 435.2) scale(0.7, -0.7) rotate(-180, 256, 256)"></path></g></svg>