<svg xmlns="http://www.w3.org/2000/svg" viewBox="0 0 512 512" ><defs><clipPath id="icon-bg"><path d="M0 0h512v512H0z" fill="rgba(0, 0, 0, 0)" transform="translate(-76.8, 588.8) scale(1.3, -1.3) rotate(-180, 256, 256)"></path></clipPath></defs><path d="M0 0h512v512H0z" fill="rgba(0, 0, 0, 0)"></path><g class="" transform="translate(0,0)" style="touch-action: none;"><path fill="rgba(0, 0, 0, 1)" d="M458.915 307.705c0 62.63-54 91.32-91.34 91.34-41.64 0-73.1-18.86-91.83-34.26 2.47 50.95 14.53 87.35 68.65 116h-176.79c54.12-28.65 66.18-65.05 68.65-116-18.73 15.39-50.2 34.28-91.83 34.26-37.29 0-91.34-28.71-91.34-91.34 0-114.47 80.64-83.32 202.91-276.49 122.28 193.17 202.92 162.03 202.92 276.49z" clip-path="url(#icon-bg)" transform="translate(76.8, 435.2) scale(0.7, -0.7) rotate(-180, 256, 256)"></path></g></svg>